<svg id="Слой_1" data-name="Слой 1" xmlns="http://www.w3.org/2000/svg" viewBox="0 0 125 82"><defs><style>.cls-1{fill:#7f7f7f;}</style></defs><path class="cls-1" d="M61.1,57.44c0,.25,0,.49,0,.73h0Z"/><path class="cls-1" d="M64,57.44v.73h0C64,57.93,64,57.69,64,57.44Z"/><path class="cls-1" d="M15.76,33.26V58.17h45.3c0-.24,0-.48,0-.73V20.38a9.7,9.7,0,0,0-9.7-9.7H17.67A9.69,9.69,0,0,0,8,20.38v5.06A7.83,7.83,0,0,1,15.76,33.26Z"/><path class="cls-1" d="M64,58.17h45.23V33.26a7.83,7.83,0,0,1,7.83-7.82h0V20.38a9.7,9.7,0,0,0-9.7-9.7H73.67A9.69,9.69,0,0,0,64,20.38V57.44C64,57.69,64,57.93,64,58.17Z"/><path class="cls-1" d="M60.54,60.67a9.69,9.69,0,0,1-9.14,6.47H17.67A9.69,9.69,0,0,1,8,57.44V27.94H7.93a5.32,5.32,0,0,0-5.32,5.32V66A5.3,5.3,0,0,0,5.86,70.9a5.21,5.21,0,0,0,2.07.42H61.1V60.67Z"/><path class="cls-1" d="M64,71.32h53.09A5.32,5.32,0,0,0,122.39,66V33.26a5.33,5.33,0,0,0-5.29-5.32v29.5a9.7,9.7,0,0,1-9.7,9.7H73.67a9.68,9.68,0,0,1-9.13-6.47H64Z"/><path class="cls-1" d="M17.67,67.14H51.4a9.69,9.69,0,0,0,9.14-6.47H13.26V33.26A5.34,5.34,0,0,0,8,27.94v29.5A9.69,9.69,0,0,0,17.67,67.14Z"/><path class="cls-1" d="M73.67,67.14H107.4a9.7,9.7,0,0,0,9.7-9.7V27.94h0a5.33,5.33,0,0,0-5.33,5.32V60.67H64.54A9.68,9.68,0,0,0,73.67,67.14Z"/></svg>