<svg id="Слой_1" data-name="Слой 1" xmlns="http://www.w3.org/2000/svg" viewBox="0 0 160 86"><defs><style>.cls-1{fill:#7f7f7f;}</style></defs><path class="cls-1" d="M78.6,66.45v-.72c0,.24,0,.48,0,.72Z"/><path class="cls-1" d="M81.48,66.45h0q0-.36,0-.72Z"/><path class="cls-1" d="M67.15,34a7.65,7.65,0,0,1-7.64-7.65V19H35.17a9.69,9.69,0,0,0-9.69,9.7v5.06a7.84,7.84,0,0,1,7.78,7.83v24.9h45.3c0-.24,0-.48,0-.72V34Z"/><path class="cls-1" d="M93.18,34H81.48v31.7q0,.36,0,.72h45.23V41.55a7.84,7.84,0,0,1,7.83-7.83h0V28.66a9.7,9.7,0,0,0-9.7-9.7H100.83v7.42A7.66,7.66,0,0,1,93.18,34Z"/><path class="cls-1" d="M68.9,75.42H35.17a9.69,9.69,0,0,1-9.69-9.69V36.23h-.05a5.33,5.33,0,0,0-5.32,5.33V74.28a5.32,5.32,0,0,0,3.25,4.91,5.21,5.21,0,0,0,2.07.42H78.6V69H78A9.69,9.69,0,0,1,68.9,75.42Z"/><path class="cls-1" d="M134.6,36.23v29.5a9.69,9.69,0,0,1-9.7,9.69H91.17A9.68,9.68,0,0,1,82,69h-.56V79.61h53.09a5.33,5.33,0,0,0,5.32-5.33V41.55A5.32,5.32,0,0,0,134.6,36.23Z"/><path class="cls-1" d="M35.17,75.42H68.9A9.69,9.69,0,0,0,78,69H30.76V41.55a5.33,5.33,0,0,0-5.28-5.32v29.5A9.69,9.69,0,0,0,35.17,75.42Z"/><path class="cls-1" d="M91.17,75.42H124.9a9.69,9.69,0,0,0,9.7-9.69V36.23h0a5.33,5.33,0,0,0-5.33,5.33V69H82A9.68,9.68,0,0,0,91.17,75.42Z"/><path class="cls-1" d="M93.18,6.39h-26A5.15,5.15,0,0,0,62,11.54V26.38a5.15,5.15,0,0,0,5.14,5.15h26a5.16,5.16,0,0,0,5.15-5.15V11.54A5.16,5.16,0,0,0,93.18,6.39Z"/></svg>