<svg id="Слой_1" data-name="Слой 1" xmlns="http://www.w3.org/2000/svg" viewBox="0 0 163.4 112.33"><defs><style>.cls-1{fill:#7f7f7f;}</style></defs><path class="cls-1" d="M35,62.57V87.48h45.3c0-.24,0-.48,0-.73V49.69A9.7,9.7,0,0,0,70.6,40H36.87a9.7,9.7,0,0,0-9.7,9.7v5.06A7.83,7.83,0,0,1,35,62.57Z"/><path class="cls-1" d="M128.44,62.57a7.83,7.83,0,0,1,7.83-7.82h0V49.69a9.7,9.7,0,0,0-9.7-9.7H92.87a9.7,9.7,0,0,0-9.7,9.7V86.75c0,.25,0,.49,0,.73h45.23Z"/><path class="cls-1" d="M70.6,96.45H36.87a9.7,9.7,0,0,1-9.7-9.7V57.25h0a5.33,5.33,0,0,0-5.33,5.32V95.3a5.31,5.31,0,0,0,3.26,4.91,5.21,5.21,0,0,0,2.07.42H136.27a5.33,5.33,0,0,0,5.32-5.33V62.57a5.33,5.33,0,0,0-5.29-5.32v29.5a9.7,9.7,0,0,1-9.7,9.7H92.87A9.68,9.68,0,0,1,83.74,90h-4A9.69,9.69,0,0,1,70.6,96.45Z"/><path class="cls-1" d="M36.87,96.45H70.6A9.69,9.69,0,0,0,79.74,90H32.46V62.57a5.34,5.34,0,0,0-5.29-5.32v29.5A9.7,9.7,0,0,0,36.87,96.45Z"/><path class="cls-1" d="M92.87,96.45H126.6a9.7,9.7,0,0,0,9.7-9.7V57.25h0a5.33,5.33,0,0,0-5.33,5.32V90H83.74A9.68,9.68,0,0,0,92.87,96.45Z"/><rect class="cls-1" x="27.43" y="13.9" width="108.86" height="22.77" rx="8.17"/></svg>