<svg id="Слой_1" data-name="Слой 1" xmlns="http://www.w3.org/2000/svg" viewBox="0 0 69 69"><defs><style>.cls-1{fill:#7f7f7f;}</style></defs><path class="cls-1" d="M53.29,7.94H15.71a7.77,7.77,0,0,0-7.77,7.77V53.29a7.77,7.77,0,0,0,7.77,7.77H53.29a7.77,7.77,0,0,0,7.77-7.77V15.71A7.77,7.77,0,0,0,53.29,7.94ZM30,13.11c.25-.07.5-.09.74-.14l.1,0h.76L32,13a4.64,4.64,0,1,1-2,.1ZM45.1,47.19a16.25,16.25,0,0,1-1.24,2,17,17,0,0,1-6.58,5.4A16,16,0,0,1,33,55.86a14.78,14.78,0,0,1-3.39.17,14.48,14.48,0,0,1-9.09-3.89,14,14,0,0,1-4.27-7.47,12.69,12.69,0,0,1-.29-2c0-.13,0-.25-.06-.37V41c0-.12.05-.23.06-.35a14.37,14.37,0,0,1,9.45-12.49,1.85,1.85,0,0,1,1.33,3.46c-.33.14-.66.25-1,.41a10.62,10.62,0,0,0-2.54,17.55,10.92,10.92,0,0,0,5.08,2.54,11.36,11.36,0,0,0,3.29.17,13,13,0,0,0,10.21-6.76,1.94,1.94,0,0,1,1.1-1,1.85,1.85,0,0,1,2.23,2.63Zm9.65-.4-.06.27A2.08,2.08,0,0,1,54,48a2.77,2.77,0,0,1-1,.56l-3.33.88a2.45,2.45,0,0,1-1.26,0,2.49,2.49,0,0,1-.55-.16,1.94,1.94,0,0,1-1-1.3c-.2-.7-.39-1.4-.57-2.11L44.93,41c0-.05,0-.1,0-.17H32.34a6.68,6.68,0,0,1-1.73-.23,2.31,2.31,0,0,1-1.72-2.21V25.72a2.56,2.56,0,0,1,.18-1,2.32,2.32,0,0,1,4.43.48,2.59,2.59,0,0,1,0,.48c0,.61,0,1.21,0,1.82v.22h8.31a3.6,3.6,0,0,1,1,.11,2.43,2.43,0,0,1,.92.5,1.32,1.32,0,0,1,.48,1.08v.34a1.29,1.29,0,0,1-.41,1,2.49,2.49,0,0,1-1.17.61,3.56,3.56,0,0,1-.8.07H33.57c0,.14,0,5.49,0,5.74H44.87a4.89,4.89,0,0,1,1.66.26,3.2,3.2,0,0,1,1.14.7,2.26,2.26,0,0,1,.62,1.08l1.65,6.15c0,.06,0,.11.05.19l.61-.17L52.06,45a2.55,2.55,0,0,1,1.57.08,1.68,1.68,0,0,1,1,1,1.43,1.43,0,0,1,.09.34Z"/></svg>