<?xml version="1.0" encoding="utf-8"?>
<!-- Generator: Adobe Illustrator 22.1.0, SVG Export Plug-In . SVG Version: 6.00 Build 0)  -->
<svg version="1.1" id="Слой_1" xmlns="http://www.w3.org/2000/svg" xmlns:xlink="http://www.w3.org/1999/xlink" x="0px" y="0px"
	 viewBox="0 0 99.5 91" style="enable-background:new 0 0 99.5 91;" xml:space="preserve">
<style type="text/css">
	.st0{fill:none;}
	.st1{opacity:0.8;fill:#FFFFFF;enable-background:new    ;}
	.st2{opacity:0.8;enable-background:new    ;}
	.st3{fill:#FFFFFF;}
</style>
<g>
	<rect id="backgroundrect" x="5.2" y="4.8" class="st0" width="89.1" height="81.3"/>
	<g>
		<title>Layer 1</title>
		<path id="svg_1" class="st1" d="M92.3,86.1v-3.9c0-1.6-1.3-2.9-3-2.9h-7.9c-1.6,0-3,1.3-3,2.9v3.9h-2v-3.9c0-2.7,2.2-4.9,5-4.9
			h7.9c2.7,0,5,2.2,5,4.9v3.9H92.3z M91.3,55.8H8.2c-0.5,0-1-0.4-1-1v-49c0-0.5,0.4-1,1-1h83.2c0.5,0,1,0.4,1,1v49
			C92.3,55.3,91.9,55.8,91.3,55.8z M90.3,6.8H9.2v47h81.2L90.3,6.8L90.3,6.8z M18.1,77.3c2.7,0,5,2.2,5,4.9v3.9h-2v-3.9
			c0-1.6-1.3-2.9-3-2.9h-7.9c-1.6,0-3,1.3-3,2.9v3.9h-2v-3.9c0-2.7,2.2-4.9,5-4.9H18.1z M17.1,72.4v-3.9c0-2.7,2.2-4.9,5-4.9H30
			c2.7,0,5,2.2,5,4.9v3.9h-2v-3.9c0-1.6-1.3-2.9-3-2.9h-8c-1.6,0-3,1.3-3,2.9v3.9H17.1z M33.9,77.3h7.9c2.7,0,5,2.2,5,4.9v3.9h-2
			v-3.9c0-1.6-1.3-2.9-3-2.9h-7.9c-1.6,0-3,1.3-3,2.9v3.9h-2v-3.9C29,79.5,31.2,77.3,33.9,77.3z M40.8,72.4v-3.9
			c0-2.7,2.2-4.9,5-4.9h7.9c2.7,0,5,2.2,5,4.9v3.9h-2v-3.9c0-1.6-1.3-2.9-3-2.9h-7.9c-1.6,0-3,1.3-3,2.9v3.9H40.8z M64.6,72.4v-3.9
			c0-2.7,2.2-4.9,5-4.9h7.9c2.7,0,5,2.2,5,4.9v3.9h-2v-3.9c0-1.6-1.3-2.9-3-2.9h-7.9c-1.6,0-3,1.3-3,2.9v3.9H64.6z M57.7,77.3h7.9
			c2.7,0,5,2.2,5,4.9v3.9h-2v-3.9c0-1.6-1.3-2.9-3-2.9h-7.9c-1.6,0-3,1.3-3,2.9v3.9h-2v-3.9C52.7,79.5,54.9,77.3,57.7,77.3z"/>
	</g>
	<g class="st2">
		<path class="st3" d="M52.3,45.6v-8.3h-14v-2.6l13.5-19.3h4.4v18.8h4.2v3.2h-4.2v8.3H52.3z M52.3,34.2V24.1c0-1.6,0-3.2,0.1-4.7
			h-0.1c-0.9,1.8-1.7,3.1-2.5,4.5l-7.4,10.3v0.1H52.3z"/>
	</g>
</g>
</svg>
