<?xml version="1.0" encoding="utf-8"?>
<!-- Generator: Adobe Illustrator 22.1.0, SVG Export Plug-In . SVG Version: 6.00 Build 0)  -->
<svg version="1.1" id="Слой_1" xmlns="http://www.w3.org/2000/svg" xmlns:xlink="http://www.w3.org/1999/xlink" x="0px" y="0px"
	 viewBox="0 0 114.3 89.7" style="enable-background:new 0 0 114.3 89.7;" xml:space="preserve">
<style type="text/css">
	.st0{fill:#FFFFFF;}
	.st1{clip-path:url(#SVGID_2_);}
</style>
<g>
	<path class="st0" d="M52.2,66.3C42.7,66.3,37,63,36.9,63l-0.3-0.2l22.9-45.2l0.2,0c16.9,1.1,33.7-5.2,33.8-5.3l0.9-0.3L69.2,63
		L69,63C62.6,65.5,57,66.3,52.2,66.3z M37.6,62.5c2.1,1,14,6.3,31.1-0.1l24.4-49c-3.7,1.3-18.3,5.9-33,5L37.6,62.5z"/>
</g>
<g>
	<path class="st0" d="M61.8,71c-7.7,0-17.4-1.6-25-8c-0.2-0.1-0.2-0.4,0-0.5c0.1-0.2,0.4-0.2,0.5,0c14.2,11.9,35.4,6.9,37.5,6.3
		l19.9-45.4c0.1-0.2,0.3-0.3,0.5-0.2c0.2,0.1,0.3,0.3,0.2,0.5L75.4,69.4l-0.2,0C75.1,69.4,69.4,71,61.8,71z"/>
</g>
<g>
	<path class="st0" d="M65.8,77.3c-7.7,0-17.3-1.6-25-8c-0.2-0.1-0.2-0.4,0-0.5c0.1-0.2,0.4-0.2,0.5,0c14.2,11.9,35.4,6.9,37.5,6.3
		l19.9-45.4c0.1-0.2,0.3-0.3,0.5-0.2c0.2,0.1,0.3,0.3,0.2,0.5L79.4,75.7l-0.2,0C79.1,75.7,73.4,77.3,65.8,77.3z"/>
</g>
<g>
	<defs>
		<polygon id="SVGID_1_" points="58.7,20.1 34.4,68.2 10.6,65.9 9.8,9.8 41.1,5 56.4,5 		"/>
	</defs>
	<clipPath id="SVGID_2_">
		<use xlink:href="#SVGID_1_"  style="overflow:visible;"/>
	</clipPath>
	<g class="st1">
		<g>
			<path class="st0" d="M52.8,60.4H18.5V11.2h34.3V60.4z M19.3,59.6H52V12H19.3V59.6z"/>
		</g>
		<g>
			<path class="st0" d="M50.2,63H16V13.8h34.3V63z M16.7,62.2h32.8V14.5H16.7V62.2z"/>
		</g>
	</g>
</g>
</svg>
