<?xml version="1.0" encoding="utf-8"?>
<!-- Generator: Adobe Illustrator 22.1.0, SVG Export Plug-In . SVG Version: 6.00 Build 0)  -->
<svg version="1.1" id="Слой_1" xmlns="http://www.w3.org/2000/svg" xmlns:xlink="http://www.w3.org/1999/xlink" x="0px" y="0px"
	 viewBox="0 0 114.3 89.7" style="enable-background:new 0 0 114.3 89.7;" xml:space="preserve">
<style type="text/css">
	.st0{fill:#FFFFFF;}
</style>
<g>
	<g>
		<g>
			<path class="st0" d="M83,51.5c0-0.3,0-0.6,0.1-0.9c0-0.8-0.2-1.5-0.8-2c-0.5-0.6-1.3-0.9-2.1-0.9H29c-0.8,0-1.5,0.3-2.1,0.9
				c-0.5,0.6-0.8,1.3-0.8,2C26.7,60.7,30.9,70,37.7,76h-9.4c-1,0-1.4,0.5-1.5,0.8c-0.1,0.2-0.3,0.9,0.5,1.6l2.9,2.9
				c0.7,0.7,2.1,1.3,3.1,1.3h42.6c1,0,2.4-0.6,3.1-1.3l2.9-2.9c0.7-0.7,0.6-1.4,0.5-1.6c-0.1-0.2-0.4-0.8-1.5-0.8h-9.4
				c1.5-1.4,2.9-2.9,4.2-4.5l9.3-2.3c2.3-0.6,4.2-2,5.4-4c1.2-2,1.6-4.4,1-6.7C90.4,54.4,87.1,51.7,83,51.5z M85.2,60.1
				c0.2,0.8,0.1,1.7-0.4,2.4c-0.4,0.7-1.1,1.3-2,1.5l-3.3,0.8c1-2.3,1.8-4.7,2.4-7.2C83.5,57.7,84.8,58.7,85.2,60.1z M75.9,81.1
				H33.2c-0.6,0-1.6-0.4-2-0.8l-2.4-2.4c-0.1-0.2-0.1-0.3,0.1-0.3h51.2c0.2,0,0.3,0.1,0.1,0.3l-2.4,2.4
				C77.4,80.7,76.5,81.1,75.9,81.1z M69.1,76h-29c-7.2-5.6-11.9-15.1-12.4-25.5c0-0.3,0.1-0.7,0.3-0.9c0.2-0.3,0.6-0.4,1-0.4h51.2
				c0.4,0,0.7,0.1,1,0.4c0.2,0.2,0.4,0.6,0.3,0.9C81,60.9,76.3,70.4,69.1,76z M89.1,64.3c-1,1.7-2.6,2.8-4.5,3.3L77,69.5
				c0.6-0.9,1.2-1.9,1.7-2.9l4.5-1.1c1.2-0.3,2.3-1.1,2.9-2.2c0.7-1.1,0.8-2.4,0.5-3.6c-0.5-2-2.3-3.5-4.3-3.6
				c0.2-1,0.4-2.1,0.5-3.2c3.4,0.2,6.2,2.4,7.1,5.8C90.4,60.7,90.1,62.6,89.1,64.3z"/>
		</g>
	</g>
	<g>
		<g>
			<path class="st0" d="M56,11.9c-0.2-0.4-0.6-0.6-1-0.4c-0.4,0.2-0.6,0.6-0.4,1c2.7,6.5,0.2,9.4-2.3,12.4c-2.5,2.9-5.1,6-3.1,12
				c0.1,0.3,0.4,0.5,0.7,0.5c0.1,0,0.2,0,0.2,0c0.4-0.1,0.6-0.6,0.5-1c-1.7-5.2,0.4-7.7,2.8-10.6C56,22.8,59,19.3,56,11.9z"/>
		</g>
	</g>
	<g>
		<g>
			<path class="st0" d="M61.7,21.1c-0.2-0.4-0.6-0.5-1-0.4c-0.4,0.2-0.5,0.6-0.4,1c2.6,5.6,0.5,8-1.9,10.9
				c-2.2,2.6-4.7,5.5-2.6,10.9c0.1,0.3,0.4,0.5,0.7,0.5c0.1,0,0.2,0,0.3-0.1c0.4-0.2,0.6-0.6,0.4-1c-1.8-4.5,0.1-6.7,2.4-9.3
				C62,30.8,64.8,27.6,61.7,21.1z"/>
		</g>
	</g>
</g>
</svg>
