<?xml version="1.0" encoding="utf-8"?>
<!-- Generator: Adobe Illustrator 22.1.0, SVG Export Plug-In . SVG Version: 6.00 Build 0)  -->
<svg version="1.1" id="Слой_1" xmlns="http://www.w3.org/2000/svg" xmlns:xlink="http://www.w3.org/1999/xlink" x="0px" y="0px"
	 viewBox="0 0 114.3 89.7" style="enable-background:new 0 0 114.3 89.7;" xml:space="preserve">
<style type="text/css">
	.st0{fill:#FFFFFF;}
	.st1{clip-path:url(#SVGID_2_);}
</style>
<g>
	<path class="st0" d="M93.5,72.1h-37l-6.5-55.1h50l-0.1,0.4L93.5,72.1z M57.2,71.3h35.6l6.4-53.6H50.9L57.2,71.3z"/>
</g>
<g>
	<path class="st0" d="M97.8,18H51l0-0.4c0.1-3.3,2.8-5.9,6.1-5.9c0.3,0,0.6,0,1,0.1c0.7-1.5,2-2.6,3.6-3.2c0.1-1.4,1.4-2.5,2.8-2.5
		c0.8,0,1.6,0.4,2.2,1c0.6-1.1,1.5-2,2.6-2.5c0.1-1.3,1.2-2.4,2.6-2.4c1.1,0,2.1,0.8,2.4,1.9c0.6,0.2,1.2,0.4,1.7,0.7
		c0.5-0.3,1.1-0.5,1.7-0.5c1.8,0,3.2,1.4,3.2,3.2c0,0.3,0,0.5-0.1,0.8c0.2,0.1,0.4,0.1,0.6,0.2c0.8-1.2,2.1-2,3.6-2
		c1.3,0,2.5,0.6,3.3,1.6c0.2,0,0.4,0,0.7,0c1.1,0,2.1,0.4,2.9,1.1c0.6-0.7,1.4-1.1,2.3-1.1c1.7,0,3.1,1.4,3.1,3.1
		c0,0.3,0,0.6-0.1,0.9c1.2,0.6,1.9,1.9,1.9,3.3c0,0.9-0.3,1.7-1,2.4L97.8,18z M51.8,17.2h45.6c0.6-0.8,0.7-1.4,0.7-1.8
		c0-1.2-0.7-2.3-1.8-2.8l-0.4-0.2l0.3-0.4c0.1-0.2,0.1-0.5,0.1-0.9c0-1.3-1-2.3-2.3-2.3c-0.8,0-1.5,0.4-2,1.1l-0.3,0.4L91.4,10
		c-0.7-0.8-1.6-1.2-2.6-1.2c-0.3,0-0.4,0-0.7,0.1L87.9,9l-0.2-0.2c-0.7-1-1.7-1.5-2.9-1.5c-1.3,0-2.5,0.7-3.1,1.9l-0.2,0.3l-0.3-0.2
		C80.9,9.1,80.5,9,80.1,9h-0.7l0.4-0.6c0.1-0.2,0.1-0.5,0.1-0.9c0-1.3-1.1-2.4-2.4-2.4c-0.5,0-1,0.2-1.5,0.5l-0.2,0.2l-0.2-0.2
		c-0.5-0.4-1.2-0.6-1.9-0.9l-0.2-0.1l0-0.2C73.3,3.7,72.7,3,71.7,3s-1.8,0.8-1.8,1.8v0.3l-0.2,0.1c-1.2,0.5-2.1,1.5-2.7,2.8
		l-0.3,0.7l-0.3-0.7c-0.4-0.7-1.1-1.2-1.9-1.2c-1.1,0-2,0.9-2,2v0.3l-0.3,0.1c-1.6,0.5-2.8,1.6-3.5,3.1l-0.1,0.3l-0.3-0.1
		c-0.4-0.1-0.7-0.1-1.1-0.1C54.3,12.5,52.1,14.5,51.8,17.2z"/>
</g>
<g>
	<path class="st0" d="M62.3,13.6c-0.1,0-0.2,0-0.2-0.1c-0.2-0.1-0.2-0.4,0-0.5c0.1-0.1,2.2-2.6,5.3-1.9c0.2,0,0.3,0.2,0.3,0.4
		c0,0.2-0.2,0.3-0.4,0.3c-2.6-0.5-4.5,1.7-4.5,1.7C62.5,13.5,62.4,13.6,62.3,13.6z"/>
</g>
<g>
	<path class="st0" d="M76.4,11.3C76.4,11.3,76.4,11.3,76.4,11.3c-0.2,0-0.4-0.2-0.4-0.4c0.3-2.2-2.3-2.8-2.4-2.8
		c-0.2,0-0.3-0.2-0.3-0.4c0-0.2,0.2-0.3,0.4-0.3c1.2,0.2,3.3,1.3,3,3.6C76.8,11.1,76.6,11.3,76.4,11.3z"/>
</g>
<g>
	<path class="st0" d="M78.8,14.3c-0.1,0-0.2,0-0.3-0.1C75.5,11,72,12.6,72,12.6c-0.2,0.1-0.4,0-0.5-0.2c-0.1-0.2,0-0.4,0.2-0.5
		c0,0,4-1.9,7.4,1.7c0.1,0.1,0.1,0.4,0,0.5C79,14.2,78.9,14.3,78.8,14.3z"/>
</g>
<g>
	<path class="st0" d="M87.9,14.3c-0.2,0-0.4-0.2-0.4-0.4c0-0.6-0.2-1.1-0.6-1.5c-0.8-0.7-2.1-0.6-2.1-0.6c-0.2,0-0.4-0.1-0.4-0.4
		c0-0.2,0.1-0.4,0.3-0.4c0.1,0,1.6-0.1,2.6,0.8c0.6,0.5,0.8,1.2,0.9,2C88.3,14.1,88.1,14.3,87.9,14.3C87.9,14.3,87.9,14.3,87.9,14.3
		z"/>
</g>
<g>
	<path class="st0" d="M93.3,16c-0.1,0-0.1,0-0.2-0.1c-0.2-0.1-0.2-0.3-0.1-0.5c0.5-0.7,0.7-1.4,0.5-1.9c-0.2-0.6-0.7-0.9-0.7-0.9
		c-0.2-0.1-0.3-0.3-0.2-0.5c0.1-0.2,0.3-0.3,0.5-0.2c0,0,0.9,0.4,1.2,1.4c0.2,0.7,0,1.6-0.6,2.5C93.5,15.9,93.4,16,93.3,16z"/>
</g>
<g>
	<path class="st0" d="M55.9,17.7C55.9,17.7,55.9,17.7,55.9,17.7c-0.2,0-0.4-0.2-0.4-0.4c0.1-2.3,2.2-3.1,2.2-3.1
		c0.2-0.1,0.4,0,0.5,0.2c0.1,0.2,0,0.4-0.2,0.5c-0.1,0-1.7,0.6-1.8,2.5C56.3,17.5,56.1,17.7,55.9,17.7z"/>
</g>
<g>
	<path class="st0" d="M60.8,67.7c-0.2,0-0.4-0.1-0.4-0.3l-4.9-46.5c0-0.2,0.1-0.4,0.3-0.4c0.2,0,0.4,0.1,0.4,0.3l4.9,46.5
		C61.2,67.5,61,67.7,60.8,67.7C60.8,67.7,60.8,67.7,60.8,67.7z"/>
</g>
<g>
	<path class="st0" d="M65.7,67.7c-0.2,0-0.4-0.2-0.4-0.4l-2.7-46.5c0-0.2,0.1-0.4,0.4-0.4c0.2,0,0.4,0.1,0.4,0.4l2.7,46.5
		C66.1,67.5,65.9,67.7,65.7,67.7C65.7,67.7,65.7,67.7,65.7,67.7z"/>
</g>
<g>
	<path class="st0" d="M71.8,67.7c-0.2,0-0.4-0.2-0.4-0.4V20.8c0-0.2,0.2-0.4,0.4-0.4s0.4,0.2,0.4,0.4v46.5
		C72.2,67.5,72,67.7,71.8,67.7z"/>
</g>
<g>
	<path class="st0" d="M78.4,67.7c-0.2,0-0.4-0.2-0.4-0.4V20.8c0-0.2,0.2-0.4,0.4-0.4s0.4,0.2,0.4,0.4v46.5
		C78.8,67.5,78.6,67.7,78.4,67.7z"/>
</g>
<g>
	<path class="st0" d="M83.4,67.7C83.4,67.7,83.4,67.7,83.4,67.7c-0.2,0-0.4-0.2-0.4-0.4l2-46.5c0-0.2,0.2-0.4,0.4-0.4
		c0.2,0,0.4,0.2,0.4,0.4l-2,46.5C83.8,67.5,83.6,67.7,83.4,67.7z"/>
</g>
<g>
	<path class="st0" d="M89.1,67.7C89.1,67.7,89.1,67.7,89.1,67.7c-0.2,0-0.4-0.2-0.4-0.4l3.1-46.5c0-0.2,0.2-0.4,0.4-0.3
		c0.2,0,0.4,0.2,0.3,0.4l-3.1,46.5C89.5,67.5,89.3,67.7,89.1,67.7z"/>
</g>
<g>
	<g>
		<defs>
			<polygon id="SVGID_1_" points="50.8,20.5 57.3,73.7 27.9,78 3.8,68.4 18.6,16.7 35.2,18 			"/>
		</defs>
		<clipPath id="SVGID_2_">
			<use xlink:href="#SVGID_1_"  style="overflow:visible;"/>
		</clipPath>
		<g class="st1">
			<g>
				<g>
					<path class="st0" d="M58.4,34.7H24.8l-2.3-7.3h38.2L58.4,34.7z M25.4,33.9h32.5l1.9-5.8H23.5L25.4,33.9z"/>
				</g>
				<g>
					<path class="st0" d="M60.7,72.1H22.5l2.3-7.3h33.5L60.7,72.1z M23.5,71.3h36.2l-1.9-5.8H25.4L23.5,71.3z"/>
				</g>
				<g>
					<path class="st0" d="M58.2,65.6H24.9l-0.1-0.2C23,60.6,22,55.1,22,49.3c0-5.4,0.9-10.6,2.5-15.1l0.1-0.2h33.9l0.1,0.2
						c1.7,4.6,2.5,9.9,2.4,15.1c0,5.8-1,11.3-2.8,16L58.2,65.6z M25.5,64.8h32.2c1.8-4.6,2.7-9.9,2.7-15.5
						c0.1-5.1-0.7-10.2-2.3-14.6H25.2c-1.6,4.4-2.4,9.4-2.4,14.6C22.8,54.9,23.7,60.2,25.5,64.8z"/>
				</g>
			</g>
			<g>
				<path class="st0" d="M29.1,53.1l4.7-10.6l7.2,9L29.1,53.1z M34,43.9l-3.7,8.2l9.3-1.2L34,43.9z"/>
			</g>
			<g>
				<path class="st0" d="M43.7,51.4L37.9,43l9.9-2.2L43.7,51.4z M39.1,43.4l4.4,6.4l3.1-8L39.1,43.4z"/>
			</g>
			<g>
				<path class="st0" d="M48.9,61.1l-11.3-6.5L49.9,50L48.9,61.1z M39.4,54.8l8.9,5.1l0.8-8.7L39.4,54.8z"/>
			</g>
			<g>
				<path class="st0" d="M34.7,49.2c-0.4,0-0.8-0.3-0.8-0.8s0.3-0.8,0.8-0.8c0.4,0,0.8,0.3,0.8,0.8S35.1,49.2,34.7,49.2z M34.7,48.4
					C34.7,48.4,34.7,48.4,34.7,48.4L34.7,48.4z"/>
			</g>
			<g>
				<path class="st0" d="M43.8,44.2c-0.4,0-0.7-0.3-0.7-0.7c0-0.4,0.3-0.7,0.7-0.7c0.4,0,0.7,0.3,0.7,0.7
					C44.5,43.9,44.2,44.2,43.8,44.2z M43.8,43.4C43.8,43.4,43.7,43.5,43.8,43.4C43.7,43.6,43.9,43.6,43.8,43.4
					C43.9,43.5,43.8,43.4,43.8,43.4z"/>
			</g>
			<g>
				<path class="st0" d="M42.8,47.2c-0.4,0-0.8-0.3-0.8-0.8c0-0.4,0.3-0.8,0.8-0.8c0.4,0,0.8,0.3,0.8,0.8
					C43.6,46.8,43.2,47.2,42.8,47.2z M42.8,46.4C42.8,46.4,42.8,46.4,42.8,46.4L42.8,46.4z"/>
			</g>
			<g>
				<path class="st0" d="M47.1,54.9c-0.4,0-0.7-0.3-0.7-0.7s0.3-0.7,0.7-0.7c0.4,0,0.7,0.3,0.7,0.7S47.5,54.9,47.1,54.9z M47.1,54.1
					C47.1,54.1,47,54.2,47.1,54.1C47,54.3,47.2,54.3,47.1,54.1C47.2,54.2,47.1,54.1,47.1,54.1z"/>
			</g>
			<g>
				<path class="st0" d="M44.2,55.4c-0.4,0-0.8-0.3-0.8-0.8c0-0.4,0.3-0.8,0.8-0.8c0.4,0,0.8,0.3,0.8,0.8C45,55,44.6,55.4,44.2,55.4
					z M44.2,54.6C44.2,54.6,44.2,54.6,44.2,54.6L44.2,54.6z"/>
			</g>
			<g>
				<path class="st0" d="M47,58.1c-0.4,0-0.8-0.3-0.8-0.8c0-0.4,0.3-0.8,0.8-0.8s0.8,0.3,0.8,0.8C47.8,57.7,47.4,58.1,47,58.1z
					 M47,57.3C47,57.3,47,57.3,47,57.3L47,57.3z"/>
			</g>
		</g>
	</g>
</g>
</svg>
