<?xml version="1.0" encoding="utf-8"?>
<!-- Generator: Adobe Illustrator 22.1.0, SVG Export Plug-In . SVG Version: 6.00 Build 0)  -->
<svg version="1.1" id="Слой_1" xmlns="http://www.w3.org/2000/svg" xmlns:xlink="http://www.w3.org/1999/xlink" x="0px" y="0px"
	 viewBox="0 0 112.2 91" style="enable-background:new 0 0 112.2 91;" xml:space="preserve">
<style type="text/css">
	.st0{fill:#FFFFFF;}
</style>
<g>
	<g>
		<path class="st0" d="M91.1,52H75.7v-0.8h15.5c1.1,0,2-0.7,2-1.4V9.4c0-0.8-0.9-1.4-2-1.4H19.9c-1.1,0-2,0.6-2,1.4v40.4
			c0,0.8,0.9,1.4,2,1.4h16.5V52H19.9c-1.5,0-2.8-1-2.8-2.2V9.4c0-1.2,1.2-2.2,2.8-2.2h71.2c1.5,0,2.8,1,2.8,2.2v40.4
			C93.9,51,92.7,52,91.1,52z"/>
	</g>
	<g>
		<rect x="49.4" y="51.3" class="st0" width="13.3" height="0.8"/>
	</g>
	<g>
		<rect x="47.5" y="47.1" class="st0" width="17.2" height="0.8"/>
	</g>
	<g>
		<path class="st0" d="M87.2,47.9H73.7v-0.8h13.5c1,0,1.8-0.5,1.8-1.1V13.2c0-0.6-0.8-1.1-1.8-1.1H23.9c-1,0-1.8,0.5-1.8,1.1V46
			c0,0.6,0.8,1.1,1.8,1.1h14.5v0.8H23.9c-1.4,0-2.5-0.8-2.5-1.8V13.2c0-1,1.1-1.9,2.5-1.9h63.3c1.4,0,2.5,0.8,2.5,1.9V46
			C89.7,47.1,88.6,47.9,87.2,47.9z"/>
	</g>
	<g>
		<path class="st0" d="M67.6,78.2h-0.8v-4.6c-0.1-1.4-0.5-2.4-3.7-3.4c-3.2-1-7.5-1.3-8.1-1.3l0,0c-1.9,0-5.2,0.4-8.1,1.3
			c-3.2,1-3.6,2.1-3.7,3.5l0,4.6h-0.8v-4.6c0.2-1.9,0.9-3.1,4.2-4.2c3.5-1.1,7-1.4,8.5-1.4v0c1,0,5.1,0.4,8.3,1.4
			c3.3,1,4,2.2,4.2,4.1L67.6,78.2z"/>
	</g>
	<g>
		<path class="st0" d="M40.8,78.2h-0.8v-4.6c-0.1-1.4-0.5-2.4-3.7-3.4c-3.2-1-7.5-1.3-8.2-1.3l0,0c-1.9,0-5.2,0.4-8.1,1.3
			c-3.2,1-3.6,2.1-3.7,3.5l0,4.6h-0.7v-4.6c0.2-1.9,0.9-3.1,4.2-4.2c3.5-1.1,7-1.4,8.5-1.4v0c1,0,5.1,0.4,8.3,1.4
			c3.3,1,4,2.2,4.2,4.1L40.8,78.2z"/>
	</g>
	<g>
		<path class="st0" d="M93.9,78.2h-0.8v-4.6c-0.1-1.4-0.5-2.4-3.7-3.4c-3.2-1-7.5-1.3-8.2-1.3l0,0c-1.9,0-5.2,0.4-8.1,1.3
			c-3.2,1-3.6,2.1-3.7,3.5l0,4.6h-0.8v-4.6c0.2-1.9,0.9-3.1,4.2-4.2c3.5-1.1,7-1.4,8.5-1.4v0c1,0,5.1,0.4,8.3,1.4
			c3.3,1,4,2.2,4.2,4.1L93.9,78.2z"/>
	</g>
	<g>
		<path class="st0" d="M93.9,61h-0.8v-1.8c-0.1-1.4-0.5-2.4-3.7-3.4c-3.1-1-7.2-1.3-8.1-1.3c-1.3,0-3.7,0.2-6.2,0.8L75,54.6
			c2.6-0.6,5-0.8,6.4-0.8c0.9,0,5.1,0.4,8.3,1.4c3.3,1,4,2.2,4.2,4.1L93.9,61z"/>
	</g>
	<g>
		<path class="st0" d="M15.7,60.8v-1.6c0.2-1.9,0.9-3.1,4.2-4.2c3.4-1.1,6.9-1.4,8.4-1.4c0.9,0,5.1,0.4,8.3,1.4
			c0.4,0.1,0.7,0.2,1.1,0.4l-0.3,0.7c-0.3-0.1-0.6-0.2-1-0.3c-3.1-1-7.2-1.3-8.1-1.3c-1.4,0-4.8,0.3-8.2,1.3c-3.2,1-3.6,2.1-3.7,3.5
			l0,1.5L15.7,60.8z"/>
	</g>
	<g>
		<path class="st0" d="M4.2,70.6H3.5V66c0.2-1.9,0.9-3.1,4.2-4.2c3.4-1.1,6.9-1.4,8.4-1.4h0.1l0,0.7l-0.1,0l0,0
			c-1.4,0-4.8,0.3-8.1,1.3c-3.2,1-3.6,2.1-3.7,3.5L4.2,70.6z"/>
	</g>
	<g>
		<path class="st0" d="M28.6,68.4h-0.8V66c-0.1-1.4-0.5-2.4-3.7-3.4c-3.2-1-7.5-1.3-8.1-1.3l0-0.8h0c0.8,0,5.1,0.4,8.4,1.4
			c3.3,1,4,2.2,4.2,4.1L28.6,68.4z"/>
	</g>
	<g>
		<path class="st0" d="M108.8,70.6H108V66c-0.1-1.4-0.5-2.4-3.7-3.4c-3.2-1-7.5-1.3-8.1-1.3v0c-0.5,0-1.4,0-2.6,0.2
			c-1.3,0.2-3.4,0.5-5.5,1.1c-3.2,1-3.6,2.1-3.7,3.5l0,2.6h-0.8V66c0.2-1.9,0.9-3.1,4.2-4.2c2.2-0.7,4.3-1,5.6-1.2
			c1-0.1,2-0.2,2.8-0.2v0c1,0,5.1,0.4,8.3,1.4c3.3,1,4,2.2,4.2,4.1L108.8,70.6z"/>
	</g>
	<g>
		<path class="st0" d="M63,54.8c-3.2-0.9-6.9-1.1-7.4-1.1c-1.3,0-3.8,0.2-6.4,0.8L49,53.7c2.6-0.6,5.1-0.9,6.5-0.9
			c0.9,0,4.6,0.3,7.6,1.2L63,54.8z"/>
	</g>
	<g>
		<path class="st0" d="M57.3,68.6h-0.8V66c0.2-1.9,0.9-3.1,4.2-4.2c2.6-0.8,4.5-1.1,5.2-1.1v-2.4c-1.5-0.8-2.7-2.2-3.3-3.8
			c-0.3-0.8-0.4-1.5-0.4-2.3c0-0.2,0-0.4,0-0.6c0.1-1.7,0.9-3.2,2.1-4.4c1.3-1.3,3-2,4.8-2s3.5,0.7,4.8,2c1.2,1.2,1.9,2.7,2.1,4.4
			c0,0.2,0,0.4,0,0.6c0,1-0.2,2-0.6,2.9c-0.7,1.4-1.8,2.6-3.2,3.3v2.3c0.8,0.1,2.7,0.4,5.2,1.1c3.3,1,4,2.2,4.2,4.1l0,2.5H81V66
			c-0.1-1.4-0.5-2.4-3.7-3.4c-3.2-1-5.4-1.1-5.4-1.1l-0.3,0v-3.5l0.2-0.1c1.3-0.6,2.4-1.7,3-3c0.4-0.8,0.6-1.7,0.6-2.6
			c0-0.2,0-0.3,0-0.5c-0.1-1.5-0.8-2.9-1.8-3.9c-1.1-1.1-2.7-1.8-4.3-1.8s-3.1,0.6-4.3,1.7c-1.1,1-1.7,2.4-1.8,3.9
			c0,0.2,0,0.3,0,0.5c0,0.7,0.1,1.4,0.4,2.1c0.5,1.5,1.7,2.8,3.1,3.5l0.2,0.1v3.5l-0.3,0c0,0-2.2,0.2-5.4,1.1
			c-3.2,1-3.6,2.1-3.7,3.5L57.3,68.6z"/>
	</g>
	<g>
		<path class="st0" d="M31,68.6h-0.8V66c0.2-1.9,0.9-3.1,4.2-4.2c2.6-0.8,4.5-1.1,5.2-1.1v-2.4c-1-0.5-1.9-1.3-2.5-2.3
			c-0.8-1.1-1.2-2.5-1.2-3.9c0-0.2,0-0.4,0-0.6c0.1-1.7,0.9-3.2,2.1-4.4c1.3-1.3,3-2,4.8-2s3.5,0.7,4.8,2c1.2,1.2,1.9,2.7,2.1,4.4
			c0,0.2,0,0.4,0,0.6c0,0.7-0.1,1.4-0.3,2c-0.5,1.8-1.8,3.3-3.5,4.1v2.3c0.8,0.1,2.7,0.4,5.2,1.1c3.3,1,4,2.2,4.2,4.1l0,2.5h-0.8V66
			c-0.1-1.4-0.5-2.4-3.7-3.4c-3.2-1-5.4-1.1-5.4-1.1l-0.3,0v-3.5l0.2-0.1c1.6-0.7,2.8-2.1,3.3-3.8c0.2-0.6,0.3-1.2,0.3-1.8
			c0-0.2,0-0.3,0-0.5c-0.1-1.5-0.8-2.9-1.8-3.9c-1.1-1.1-2.7-1.8-4.3-1.8s-3.1,0.6-4.3,1.7c-1.1,1-1.7,2.4-1.8,3.9
			c0,0.2,0,0.3,0,0.5c0,1.2,0.4,2.4,1.1,3.4c0.6,0.9,1.5,1.6,2.5,2.1l0.2,0.1v3.5l-0.3,0c0,0-2.2,0.2-5.4,1.1
			c-3.2,1-3.6,2.1-3.7,3.5L31,68.6z"/>
	</g>
</g>
</svg>
