<?xml version="1.0" encoding="utf-8"?>
<!-- Generator: Adobe Illustrator 22.1.0, SVG Export Plug-In . SVG Version: 6.00 Build 0)  -->
<svg version="1.1" id="Слой_1" xmlns="http://www.w3.org/2000/svg" xmlns:xlink="http://www.w3.org/1999/xlink" x="0px" y="0px"
	 viewBox="0 0 112.2 91" style="enable-background:new 0 0 112.2 91;" xml:space="preserve">
<style type="text/css">
	.st0{fill:#FFFFFF;}
</style>
<g>
	<g>
		<path class="st0" d="M70.5,54c-0.7,0-1.3-0.6-1.3-1.3c0-0.7,0.6-1.3,1.3-1.3c0.7,0,1.3,0.6,1.3,1.3C71.8,53.5,71.2,54,70.5,54z
			 M70.5,52.2c-0.3,0-0.5,0.2-0.5,0.5c0,0.3,0.2,0.5,0.5,0.5c0.3,0,0.5-0.2,0.5-0.5C71,52.5,70.8,52.2,70.5,52.2z"/>
	</g>
	<g>
		<path class="st0" d="M76.8,59.4c-0.7,0-1.3-0.6-1.3-1.3c0-0.7,0.6-1.3,1.3-1.3c0.7,0,1.3,0.6,1.3,1.3
			C78.1,58.9,77.5,59.4,76.8,59.4z M76.8,57.6c-0.3,0-0.5,0.2-0.5,0.5c0,0.3,0.2,0.5,0.5,0.5c0.3,0,0.5-0.2,0.5-0.5
			C77.4,57.9,77.1,57.6,76.8,57.6z"/>
	</g>
	<g>
		<path class="st0" d="M76.8,48.1c-0.7,0-1.3-0.6-1.3-1.3c0-0.7,0.6-1.3,1.3-1.3c0.7,0,1.3,0.6,1.3,1.3
			C78.1,47.5,77.5,48.1,76.8,48.1z M76.8,46.2c-0.3,0-0.5,0.2-0.5,0.5c0,0.3,0.2,0.5,0.5,0.5c0.3,0,0.5-0.2,0.5-0.5
			S77.1,46.2,76.8,46.2z"/>
	</g>
	<g>
		<path class="st0" d="M82.9,54c-0.7,0-1.3-0.6-1.3-1.3c0-0.7,0.6-1.3,1.3-1.3c0.7,0,1.3,0.6,1.3,1.3C84.2,53.5,83.6,54,82.9,54z
			 M82.9,52.2c-0.3,0-0.5,0.2-0.5,0.5c0,0.3,0.2,0.5,0.5,0.5c0.3,0,0.5-0.2,0.5-0.5C83.4,52.5,83.2,52.2,82.9,52.2z"/>
	</g>
	<g>
		<path class="st0" d="M99.3,64.6H88.1v-0.8h11.3c1.4,0,2.6-0.8,2.6-1.7V15.9c0-0.9-1.2-1.7-2.6-1.7H12.8c-1.4,0-2.6,0.8-2.6,1.7
			v46.2c0,0.9,1.2,1.7,2.6,1.7h11.3v0.8H12.8c-1.8,0-3.3-1.1-3.3-2.5V15.9c0-1.4,1.5-2.5,3.3-2.5h86.5c1.8,0,3.3,1.1,3.3,2.5v46.2
			C102.6,63.5,101.2,64.6,99.3,64.6z M67.5,64.6H44.7v-0.8h22.8V64.6z M88.4,59.9h-0.8V46.5c0-3.1-2.5-5.6-5.6-5.6h-52
			c-3.1,0-5.6,2.5-5.6,5.6v13.4h-0.8V46.5c0-3.5,2.9-6.4,6.4-6.4h52c3.5,0,6.4,2.9,6.4,6.4V59.9z"/>
	</g>
	<g>
		<path class="st0" d="M70.5,54c-0.7,0-1.3-0.6-1.3-1.3c0-0.7,0.6-1.3,1.3-1.3c0.7,0,1.3,0.6,1.3,1.3C71.8,53.5,71.2,54,70.5,54z
			 M70.5,52.2c-0.3,0-0.5,0.2-0.5,0.5c0,0.3,0.2,0.5,0.5,0.5c0.3,0,0.5-0.2,0.5-0.5C71,52.5,70.8,52.2,70.5,52.2z"/>
	</g>
	<g>
		<path class="st0" d="M76.8,59.4c-0.7,0-1.3-0.6-1.3-1.3c0-0.7,0.6-1.3,1.3-1.3c0.7,0,1.3,0.6,1.3,1.3
			C78.1,58.9,77.5,59.4,76.8,59.4z M76.8,57.6c-0.3,0-0.5,0.2-0.5,0.5c0,0.3,0.2,0.5,0.5,0.5c0.3,0,0.5-0.2,0.5-0.5
			C77.4,57.9,77.1,57.6,76.8,57.6z"/>
	</g>
	<g>
		<path class="st0" d="M76.8,48.1c-0.7,0-1.3-0.6-1.3-1.3c0-0.7,0.6-1.3,1.3-1.3c0.7,0,1.3,0.6,1.3,1.3
			C78.1,47.5,77.5,48.1,76.8,48.1z M76.8,46.2c-0.3,0-0.5,0.2-0.5,0.5c0,0.3,0.2,0.5,0.5,0.5c0.3,0,0.5-0.2,0.5-0.5
			S77.1,46.2,76.8,46.2z"/>
	</g>
	<g>
		<path class="st0" d="M82.9,54c-0.7,0-1.3-0.6-1.3-1.3c0-0.7,0.6-1.3,1.3-1.3c0.7,0,1.3,0.6,1.3,1.3C84.2,53.5,83.6,54,82.9,54z
			 M82.9,52.2c-0.3,0-0.5,0.2-0.5,0.5c0,0.3,0.2,0.5,0.5,0.5c0.3,0,0.5-0.2,0.5-0.5C83.4,52.5,83.2,52.2,82.9,52.2z"/>
	</g>
	<g>
		<path class="st0" d="M94.7,60.3h-7V46.5c0-3.1-2.5-5.6-5.6-5.6h-52c-3.1,0-5.6,2.5-5.6,5.6v13.8h-7.1c-1.7,0-3-0.9-3-2.1V19.8
			c0-1.2,1.3-2.1,3-2.1h77.3c1.7,0,3,0.9,3,2.1v38.4C97.7,59.4,96.4,60.3,94.7,60.3z M88.4,59.5h6.3c1.2,0,2.2-0.6,2.2-1.3V19.8
			c0-0.7-1-1.3-2.2-1.3H17.4c-1.2,0-2.2,0.6-2.2,1.3v38.4c0,0.7,1,1.3,2.2,1.3h6.3v-13c0-3.5,2.9-6.4,6.4-6.4h52
			c3.5,0,6.4,2.9,6.4,6.4V59.5z"/>
	</g>
	<g>
		<rect x="51.4" y="64.2" class="st0" width="0.8" height="9"/>
	</g>
	<g>
		<rect x="59.9" y="64.2" class="st0" width="0.8" height="9"/>
	</g>
	<g>
		<path class="st0" d="M88.4,58.1h-0.8V46.5c0-3.1-2.5-5.6-5.6-5.6h-52c-3.1,0-5.6,2.5-5.6,5.6v11.7h-0.8V46.5
			c0-3.5,2.9-6.4,6.4-6.4h52c3.5,0,6.4,2.9,6.4,6.4V58.1z"/>
	</g>
	<g>
		<rect x="44.6" y="63.7" class="st0" width="22.8" height="0.8"/>
	</g>
	<g>
		<path class="st0" d="M31.7,76.5c-5.3,0-8-2.1-8-6.3V56.4h0.8v13.7c0,3.8,2.4,5.6,7.2,5.6c5.6,0,12.5-8.3,12.6-11.5l0.8-0.1v0
			C45,67.8,37.8,76.5,31.7,76.5z"/>
	</g>
	<g>
		<path class="st0" d="M80.5,76.5c-6.1,0-13.3-8.7-13.3-12.3l0.4-0.1l0.4,0c0.1,3.3,7,11.6,12.6,11.6c4.9,0,7.2-1.8,7.2-5.6V56.4
			h0.8v13.7C88.4,74.3,85.7,76.5,80.5,76.5z"/>
	</g>
	<g>
		<rect x="35.6" y="45.7" class="st0" width="0.8" height="13.7"/>
	</g>
	<g>
		<rect x="29.2" y="52.1" class="st0" width="13.6" height="0.8"/>
	</g>
	<g>
		<rect x="49.3" y="49.8" class="st0" width="13.7" height="0.8"/>
	</g>
	<g>
		<rect x="49.3" y="54.4" class="st0" width="13.7" height="0.8"/>
	</g>
	<g>
		<path class="st0" d="M76.8,47.8c-0.6,0-1-0.5-1-1c0-0.6,0.5-1,1-1s1,0.5,1,1C77.9,47.4,77.4,47.8,76.8,47.8z M76.8,46
			c-0.4,0-0.8,0.4-0.8,0.8c0,0.4,0.4,0.8,0.8,0.8s0.8-0.4,0.8-0.8C77.6,46.4,77.3,46,76.8,46z"/>
	</g>
	<g>
		<path class="st0" d="M76.8,59.2c-0.6,0-1-0.5-1-1s0.5-1,1-1s1,0.5,1,1S77.4,59.2,76.8,59.2z M76.8,57.4c-0.4,0-0.8,0.4-0.8,0.8
			s0.4,0.8,0.8,0.8s0.8-0.4,0.8-0.8S77.3,57.4,76.8,57.4z"/>
	</g>
	<g>
		<path class="st0" d="M70.5,53.8c-0.6,0-1-0.5-1-1c0-0.6,0.5-1,1-1s1,0.5,1,1C71.5,53.3,71.1,53.8,70.5,53.8z M70.5,52
			c-0.4,0-0.8,0.4-0.8,0.8c0,0.4,0.4,0.8,0.8,0.8s0.8-0.4,0.8-0.8C71.3,52.3,70.9,52,70.5,52z"/>
	</g>
	<g>
		<path class="st0" d="M82.9,53.8c-0.6,0-1-0.5-1-1c0-0.6,0.5-1,1-1c0.6,0,1,0.5,1,1C83.9,53.3,83.4,53.8,82.9,53.8z M82.9,52
			c-0.4,0-0.8,0.4-0.8,0.8c0,0.4,0.4,0.8,0.8,0.8c0.4,0,0.8-0.4,0.8-0.8C83.7,52.3,83.3,52,82.9,52z"/>
	</g>
	<g>
		<path class="st0" d="M69,79.3H43.2c-1,0-1.9-0.9-1.9-1.9v-2.7c0-1,0.9-1.9,1.9-1.9H69c1,0,1.9,0.9,1.9,1.9v2.7
			C70.9,78.5,70,79.3,69,79.3z M43.2,73.6c-0.6,0-1.1,0.5-1.1,1.1v2.7c0,0.6,0.5,1.1,1.1,1.1H69c0.6,0,1.1-0.5,1.1-1.1v-2.7
			c0-0.6-0.5-1.1-1.1-1.1H43.2z"/>
	</g>
</g>
</svg>
