<?xml version="1.0" encoding="utf-8"?>
<!-- Generator: Adobe Illustrator 22.1.0, SVG Export Plug-In . SVG Version: 6.00 Build 0)  -->
<svg version="1.1" id="Слой_1" xmlns="http://www.w3.org/2000/svg" xmlns:xlink="http://www.w3.org/1999/xlink" x="0px" y="0px"
	 viewBox="0 0 99.5 91" style="enable-background:new 0 0 99.5 91;" xml:space="preserve">
<style type="text/css">
	.st0{enable-background:new    ;}
	.st1{fill:#FFFFFF;}
	.st2{opacity:0.8;enable-background:new    ;}
</style>
<g>
	<g class="st0">
		<path class="st1" d="M92.1,58.5h-6.9v-0.8h6.9c1.4,0,2.5-0.8,2.5-1.7V10c0-0.9-1.1-1.7-2.5-1.7H7.6c-1.3,0-2.5,0.8-2.5,1.7v46
			c0,0.9,1.1,1.7,2.5,1.7h6.7v0.8H7.6c-1.8,0-3.2-1.1-3.2-2.4V10c0-1.3,1.5-2.4,3.2-2.4h84.5c1.8,0,3.2,1.1,3.2,2.4v46
			C95.3,57.4,93.9,58.5,92.1,58.5z M50.6,58.5H49v-0.8h1.6V58.5z"/>
	</g>
	<g class="st0">
		<path class="st1" d="M47.9,68.7H15.4c-0.8,0-1.5-0.4-1.5-1V52.8c0-0.6,0.6-1,1.5-1h32.5c0.8,0,1.5,0.4,1.5,1v14.9
			C49.4,68.3,48.8,68.7,47.9,68.7z M15.4,52.5c-0.5,0-0.7,0.2-0.7,0.3v14.9c0,0.1,0.3,0.3,0.7,0.3h32.5c0.5,0,0.7-0.2,0.7-0.3V52.8
			c0-0.1-0.3-0.3-0.7-0.3H15.4z"/>
	</g>
	<g class="st0">
		<path class="st1" d="M84.1,68.7H51.7c-0.8,0-1.5-0.5-1.5-1V52.8c0-0.6,0.6-1,1.5-1h32.4c0.8,0,1.5,0.4,1.5,1v14.9
			C85.5,68.3,84.9,68.7,84.1,68.7z M51.7,52.5c-0.5,0-0.7,0.2-0.7,0.3v14.9c0,0.1,0.3,0.3,0.7,0.3h32.4c0.5,0,0.7-0.2,0.7-0.3V52.8
			c0-0.1-0.3-0.3-0.7-0.3H51.7z"/>
	</g>
	<g class="st0">
		<path class="st1" d="M12,83.4H5c-0.4,0-0.7-0.4-0.7-1V62.5c0-0.6,0.3-1,0.7-1h7c0.4,0,0.7,0.4,0.7,1v19.9
			C12.7,83,12.4,83.4,12,83.4z M5.1,82.6h6.8c0-0.1,0-0.2,0-0.3V62.5c0-0.1,0-0.2,0-0.3H5.1c0,0.1,0,0.2,0,0.3v19.9
			C5.1,82.5,5.1,82.6,5.1,82.6z"/>
	</g>
	<g class="st0">
		<path class="st1" d="M94.6,83.4h-7.2c-0.4,0-0.7-0.4-0.7-1V62.5c0-0.6,0.3-1,0.7-1h7.2c0.4,0,0.7,0.4,0.7,1v19.9
			C95.3,82.9,95,83.4,94.6,83.4z M87.5,82.6h7c0-0.1,0.1-0.2,0.1-0.3V62.5c0-0.1,0-0.2-0.1-0.3h-7c0,0.1-0.1,0.2-0.1,0.3v19.9
			C87.5,82.5,87.5,82.6,87.5,82.6z"/>
	</g>
	<g class="st0">
		<path class="st1" d="M83.3,83.1H16.4c-1.4,0-2.5-1.1-2.5-2.5v-8c0-1.4,1.1-2.5,2.5-2.5h66.9c1.4,0,2.5,1.1,2.5,2.5v8
			C85.8,81.9,84.7,83.1,83.3,83.1z M16.4,70.8c-1,0-1.8,0.8-1.8,1.8v8c0,1,0.8,1.8,1.8,1.8h66.9c1,0,1.8-0.8,1.8-1.8v-8
			c0-1-0.8-1.8-1.8-1.8H16.4z"/>
	</g>
	<g class="st2">
		
			<rect x="18.4" y="51.8" transform="matrix(0.1081 -0.9941 0.9941 0.1081 -35.3389 65.0538)" class="st1" width="0.3" height="0.8"/>
	</g>
	<g class="st0">
		<path class="st1" d="M43.3,52.5H18.2l0.1-0.4c0.2-1.6,1-2.9,4.2-3.8c2.5-0.8,4.5-1.1,5.2-1.1v-2.4c-2.3-1.2-3.7-3.5-3.7-6.1
			c0-3.8,3.1-6.9,6.9-6.9c3.8,0,6.9,3.1,6.9,6.9c0,2.6-1.5,5-3.8,6.1v2.4c0.8,0.1,2.7,0.4,5.2,1.1c3.2,1,4,2.2,4.2,3.8L43.3,52.5z
			 M19,51.7h23.4c-0.2-1-0.8-1.9-3.6-2.8c-3.2-1-5.4-1.1-5.4-1.1l-0.3,0v-3.5l0.2-0.1c2.2-1,3.6-3.2,3.6-5.5c0-3.4-2.7-6.1-6.1-6.1
			c-3.4,0-6.1,2.7-6.1,6.1c0,2.4,1.4,4.5,3.5,5.5l0.2,0.1v3.5l-0.3,0c0,0-2.2,0.2-5.4,1.1C19.9,49.8,19.3,50.7,19,51.7z"/>
	</g>
	<g class="st2">
		<polygon class="st1" points="42.5,52.4 42.5,52.1 43.3,52 43.3,52.3 		"/>
	</g>
	<g class="st2">
		<polygon class="st1" points="56.1,52.4 55.3,52.3 55.4,52 56.1,52.1 		"/>
	</g>
	<g class="st0">
		<path class="st1" d="M80.4,52.5H55.3l0.1-0.4c0.2-1.6,1-2.9,4.2-3.8c2.5-0.8,4.5-1.1,5.2-1.1v-2.4c-2.3-1.2-3.7-3.5-3.7-6.1
			c0-3.8,3.1-6.9,6.9-6.9c3.8,0,6.9,3.1,6.9,6.9c0,2.6-1.5,5-3.8,6.1v2.3c0.8,0.1,2.7,0.4,5.2,1.1c3.2,1,4,2.2,4.2,3.8L80.4,52.5z
			 M56.2,51.7h23.4c-0.2-1-0.8-1.9-3.6-2.8c-3.2-1-5.4-1.1-5.4-1.1l-0.3,0v-3.5l0.2-0.1c2.2-1,3.6-3.2,3.6-5.6
			c0-3.4-2.7-6.1-6.1-6.1c-3.4,0-6.1,2.7-6.1,6.1c0,2.4,1.4,4.5,3.5,5.5l0.2,0.1v3.5l-0.3,0c0,0-2.2,0.2-5.4,1.1
			C57,49.8,56.4,50.7,56.2,51.7z"/>
	</g>
	<g class="st2">
		<polygon class="st1" points="79.7,52.4 79.6,52.1 80.4,52 80.4,52.3 		"/>
	</g>
</g>
</svg>
